<svg xmlns="http://www.w3.org/2000/svg" version="1.1" xmlns:xlink="http://www.w3.org/1999/xlink" xmlns:svgjs="http://svgjs.dev/svgjs" viewBox="0 0 800 400"><path d="M9.8566312789917,213.6200714111328C15.232975482940674,213.02269999186197,30.6152933438619,211.08124287923178,42.11469650268555,210.0358428955078C53.614099661509194,208.99044291178384,64.66547584533691,208.2437286376953,78.8530502319336,207.34767150878906C93.04062461853027,206.4516143798828,108.42293930053711,207.04898579915366,127.24014282226562,204.6595001220703C146.05734634399414,202.27001444498697,171.59498087565103,197.34170277913412,191.7562713623047,193.01075744628906C211.91756184895834,188.679812113444,230.8841120402018,183.30345916748047,248.2078857421875,178.673828125C265.53165944417316,174.04419708251953,281.51133728027344,169.26522827148438,295.69891357421875,165.23297119140625C309.88648986816406,161.20071411132812,311.0812530517578,157.01911417643228,333.3333435058594,154.48028564453125C355.58543395996094,151.94145711263022,400.089594523112,150.59737141927084,429.2114562988281,150C458.33331807454425,149.40262858072916,483.57228088378906,148.2078857421875,508.06451416015625,150.89605712890625C532.5567474365234,153.584228515625,555.1075032552084,161.94742838541666,576.1648559570312,166.1290283203125C597.2222086588541,170.31062825520834,615.8901062011719,172.99879709879556,634.4086303710938,175.98565673828125C652.9271545410156,178.97251637776694,673.2377726236979,183.1541290283203,687.2760009765625,184.05018615722656C701.3142293294271,184.9462432861328,710.2748006184896,181.6606877644857,718.6380004882812,181.36199951171875C727.0012003580729,181.0633112589518,733.8709716796875,181.9593709309896,737.4552001953125,182.258056640625C741.0394287109375,182.5567423502604,732.8255716959635,182.4073969523112,740.1433715820312,183.15411376953125C747.461171468099,183.9008305867513,774.4922281901041,186.14098358154297,781.3619995117188,186.7383575439453" fill="none" stroke-width="25" stroke="#7c32ec" stroke-linecap="round"></path><defs><linearGradient id="SvgjsLinearGradient1005"><stop stop-color="hsl(37, 99%, 67%)" offset="0"></stop><stop stop-color="hsl(316, 73%, 52%)" offset="1"></stop></linearGradient></defs></svg>